<svg xmlns="http://www.w3.org/2000/svg" viewBox="0 0 94 111">
  <path d="M 50,67 L 55,67 L 56,68 L 56,87 L 60,87 L 63,84 L 63,82 L 64,81 L 65,82 L 65,88 L 64,89 L 46,89 L 45,88 L 46,87 L 49,87 L 49,68 Z" fill="white"/>
  <path d="M 35,53 L 36,52 L 43,52 L 44,53 L 43,54 L 43,64 L 49,64 L 49,45 L 46,45 L 45,44 L 46,43 L 59,43 L 60,44 L 59,45 L 56,45 L 56,64 L 62,64 L 62,54 L 61,53 L 62,52 L 69,52 L 70,53 L 68,54 L 68,75 L 72,77 L 71,78 L 60,78 L 59,77 L 60,76 L 62,76 L 62,66 L 43,66 L 43,76 L 45,76 L 46,77 L 45,78 L 34,78 L 33,77 L 37,75 L 37,54 Z" fill="white"/>
</svg>